<svg width="310" height="110" viewBox="0 0 310 110" fill="none" xmlns="http://www.w3.org/2000/svg">
<g clip-path="url(#clip0_2084_439)">
<path d="M50.496 33.776C55.0187 33.776 58.56 35.1413 61.12 37.872C63.7227 40.6027 65.024 44.336 65.024 49.072V70H52.48V50.736C52.48 48.816 51.9467 47.3227 50.88 46.256C49.8133 45.1893 48.3627 44.656 46.528 44.656C44.6933 44.656 43.2427 45.1893 42.176 46.256C41.1093 47.3227 40.576 48.816 40.576 50.736V70H28.032V50.736C28.032 48.816 27.4987 47.3227 26.432 46.256C25.408 45.1893 23.9787 44.656 22.144 44.656C20.2667 44.656 18.7947 45.1893 17.728 46.256C16.6613 47.3227 16.128 48.816 16.128 50.736V70H3.584V34.096H16.128V38.832C17.2373 37.296 18.6667 36.08 20.416 35.184C22.208 34.2453 24.256 33.776 26.56 33.776C29.2053 33.776 31.552 34.352 33.6 35.504C35.6907 36.656 37.3333 38.2773 38.528 40.368C39.808 38.4053 41.4933 36.8267 43.584 35.632C45.6747 34.3947 47.9787 33.776 50.496 33.776ZM69.8485 52.016C69.8485 48.304 70.5098 45.0613 71.8325 42.288C73.1978 39.5147 75.0325 37.3813 77.3365 35.888C79.6832 34.3947 82.2858 33.648 85.1445 33.648C87.6192 33.648 89.7525 34.1387 91.5445 35.12C93.3365 36.1013 94.7232 37.424 95.7045 39.088V34.096H108.249V70H95.7045V65.008C94.7232 66.672 93.3152 67.9947 91.4805 68.976C89.6885 69.9573 87.5765 70.448 85.1445 70.448C82.2858 70.448 79.6832 69.7013 77.3365 68.208C75.0325 66.7147 73.1978 64.5813 71.8325 61.808C70.5098 58.992 69.8485 55.728 69.8485 52.016ZM95.7045 52.016C95.7045 49.712 95.0645 47.8987 93.7845 46.576C92.5472 45.2533 91.0112 44.592 89.1765 44.592C87.2992 44.592 85.7418 45.2533 84.5045 46.576C83.2672 47.856 82.6485 49.6693 82.6485 52.016C82.6485 54.32 83.2672 56.1547 84.5045 57.52C85.7418 58.8427 87.2992 59.504 89.1765 59.504C91.0112 59.504 92.5472 58.8427 93.7845 57.52C95.0645 56.1973 95.7045 54.3627 95.7045 52.016ZM152.133 34.096V70H139.525V64.88C138.458 66.5013 136.986 67.824 135.109 68.848C133.231 69.8293 131.077 70.32 128.645 70.32C124.463 70.32 121.157 68.9547 118.725 66.224C116.335 63.4507 115.141 59.696 115.141 54.96V34.096H127.621V53.36C127.621 55.408 128.154 57.0293 129.221 58.224C130.33 59.376 131.781 59.952 133.573 59.952C135.407 59.952 136.858 59.376 137.925 58.224C138.991 57.0293 139.525 55.408 139.525 53.36V34.096H152.133ZM171.816 22.64V70H159.272V22.64H171.816ZM176.911 52.016C176.911 48.304 177.572 45.0613 178.895 42.288C180.26 39.5147 182.095 37.3813 184.399 35.888C186.746 34.3947 189.348 33.648 192.207 33.648C194.682 33.648 196.815 34.1387 198.607 35.12C200.399 36.1013 201.786 37.424 202.767 39.088V34.096H215.311V70H202.767V65.008C201.786 66.672 200.378 67.9947 198.543 68.976C196.751 69.9573 194.639 70.448 192.207 70.448C189.348 70.448 186.746 69.7013 184.399 68.208C182.095 66.7147 180.26 64.5813 178.895 61.808C177.572 58.992 176.911 55.728 176.911 52.016ZM202.767 52.016C202.767 49.712 202.127 47.8987 200.847 46.576C199.61 45.2533 198.074 44.592 196.239 44.592C194.362 44.592 192.804 45.2533 191.567 46.576C190.33 47.856 189.711 49.6693 189.711 52.016C189.711 54.32 190.33 56.1547 191.567 57.52C192.804 58.8427 194.362 59.504 196.239 59.504C198.074 59.504 199.61 58.8427 200.847 57.52C202.127 56.1973 202.767 54.3627 202.767 52.016ZM245.947 33.776C250.086 33.776 253.371 35.1627 255.803 37.936C258.235 40.6667 259.451 44.3787 259.451 49.072V70H246.907V50.736C246.907 48.688 246.374 47.088 245.307 45.936C244.24 44.7413 242.811 44.144 241.019 44.144C239.142 44.144 237.67 44.7413 236.603 45.936C235.536 47.088 235.003 48.688 235.003 50.736V70H222.459V34.096H235.003V39.216C236.112 37.5947 237.606 36.2933 239.483 35.312C241.36 34.288 243.515 33.776 245.947 33.776ZM264.286 52.016C264.286 48.304 264.947 45.0613 266.27 42.288C267.635 39.5147 269.47 37.3813 271.774 35.888C274.121 34.3947 276.723 33.648 279.582 33.648C282.057 33.648 284.19 34.1387 285.982 35.12C287.774 36.1013 289.161 37.424 290.142 39.088V34.096H302.686V70H290.142V65.008C289.161 66.672 287.753 67.9947 285.918 68.976C284.126 69.9573 282.014 70.448 279.582 70.448C276.723 70.448 274.121 69.7013 271.774 68.208C269.47 66.7147 267.635 64.5813 266.27 61.808C264.947 58.992 264.286 55.728 264.286 52.016ZM290.142 52.016C290.142 49.712 289.502 47.8987 288.222 46.576C286.985 45.2533 285.449 44.592 283.614 44.592C281.737 44.592 280.179 45.2533 278.942 46.576C277.705 47.856 277.086 49.6693 277.086 52.016C277.086 54.32 277.705 56.1547 278.942 57.52C280.179 58.8427 281.737 59.504 283.614 59.504C285.449 59.504 286.985 58.8427 288.222 57.52C289.502 56.1973 290.142 54.3627 290.142 52.016Z" fill="white"/>
<path d="M207.468 96.288C205.284 96.288 203.496 95.808 202.104 94.848C200.736 93.888 199.968 92.52 199.8 90.744H201.456C201.576 92.016 202.152 93.024 203.184 93.768C204.24 94.512 205.668 94.884 207.468 94.884C208.956 94.884 210.132 94.512 210.996 93.768C211.884 93 212.328 92.064 212.328 90.96C212.328 90.192 212.088 89.568 211.608 89.088C211.152 88.584 210.576 88.2 209.88 87.936C209.184 87.672 208.236 87.384 207.036 87.072C205.596 86.688 204.432 86.316 203.544 85.956C202.656 85.572 201.9 85.008 201.276 84.264C200.652 83.52 200.34 82.524 200.34 81.276C200.34 80.364 200.616 79.524 201.168 78.756C201.72 77.964 202.488 77.34 203.472 76.884C204.456 76.428 205.572 76.2 206.82 76.2C208.86 76.2 210.504 76.716 211.752 77.748C213.024 78.756 213.708 80.16 213.804 81.96H212.184C212.112 80.664 211.608 79.608 210.672 78.792C209.736 77.976 208.44 77.568 206.784 77.568C205.392 77.568 204.24 77.928 203.328 78.648C202.416 79.368 201.96 80.244 201.96 81.276C201.96 82.188 202.212 82.932 202.716 83.508C203.244 84.06 203.88 84.492 204.624 84.804C205.392 85.092 206.4 85.404 207.648 85.74C209.016 86.1 210.108 86.46 210.924 86.82C211.764 87.156 212.472 87.66 213.048 88.332C213.624 88.98 213.912 89.856 213.912 90.96C213.912 91.968 213.636 92.88 213.084 93.696C212.532 94.512 211.764 95.148 210.78 95.604C209.796 96.06 208.692 96.288 207.468 96.288ZM221.259 77.856V90.78C221.259 92.22 221.523 93.216 222.051 93.768C222.579 94.296 223.515 94.56 224.859 94.56H227.055V96H224.607C222.903 96 221.643 95.604 220.827 94.812C220.035 93.996 219.639 92.652 219.639 90.78V77.856H216.687V76.452H219.639V71.484H221.259V76.452H227.055V77.856H221.259ZM247.851 76.452V96H246.231V91.752C245.679 93.24 244.755 94.38 243.459 95.172C242.187 95.94 240.723 96.324 239.067 96.324C236.739 96.324 234.831 95.616 233.343 94.2C231.879 92.76 231.147 90.636 231.147 87.828V76.452H232.731V87.72C232.731 90.048 233.319 91.836 234.495 93.084C235.671 94.308 237.267 94.92 239.283 94.92C241.395 94.92 243.075 94.248 244.323 92.904C245.595 91.56 246.231 89.568 246.231 86.928V76.452H247.851ZM252.749 86.208C252.749 84.192 253.145 82.428 253.937 80.916C254.753 79.404 255.869 78.24 257.285 77.424C258.725 76.608 260.357 76.2 262.181 76.2C264.173 76.2 265.901 76.704 267.365 77.712C268.829 78.696 269.861 79.98 270.461 81.564V69.36H272.081V96H270.461V90.816C269.885 92.424 268.877 93.744 267.437 94.776C265.997 95.784 264.245 96.288 262.181 96.288C260.357 96.288 258.725 95.88 257.285 95.064C255.869 94.224 254.753 93.048 253.937 91.536C253.145 90 252.749 88.224 252.749 86.208ZM270.461 86.208C270.461 84.504 270.101 83.004 269.381 81.708C268.685 80.388 267.725 79.38 266.501 78.684C265.277 77.964 263.909 77.604 262.397 77.604C260.813 77.604 259.421 77.952 258.221 78.648C257.021 79.32 256.085 80.304 255.413 81.6C254.741 82.896 254.405 84.432 254.405 86.208C254.405 87.984 254.741 89.52 255.413 90.816C256.085 92.112 257.021 93.108 258.221 93.804C259.445 94.5 260.837 94.848 262.397 94.848C263.909 94.848 265.277 94.5 266.501 93.804C267.749 93.084 268.721 92.076 269.417 90.78C270.113 89.46 270.461 87.936 270.461 86.208ZM278.807 72.096C278.423 72.096 278.099 71.976 277.835 71.736C277.571 71.472 277.439 71.124 277.439 70.692C277.439 70.284 277.571 69.948 277.835 69.684C278.099 69.42 278.423 69.288 278.807 69.288C279.191 69.288 279.515 69.42 279.779 69.684C280.043 69.948 280.175 70.284 280.175 70.692C280.175 71.124 280.043 71.472 279.779 71.736C279.515 71.976 279.191 72.096 278.807 72.096ZM279.599 76.452V96H277.979V76.452H279.599ZM294.142 96.288C292.318 96.288 290.674 95.88 289.21 95.064C287.746 94.248 286.594 93.084 285.754 91.572C284.938 90.036 284.53 88.248 284.53 86.208C284.53 84.192 284.95 82.428 285.79 80.916C286.63 79.38 287.782 78.216 289.246 77.424C290.734 76.608 292.39 76.2 294.214 76.2C296.038 76.2 297.682 76.608 299.146 77.424C300.61 78.216 301.75 79.368 302.566 80.88C303.406 82.392 303.826 84.168 303.826 86.208C303.826 88.248 303.406 90.036 302.566 91.572C301.726 93.084 300.562 94.248 299.074 95.064C297.61 95.88 295.966 96.288 294.142 96.288ZM294.142 94.848C295.558 94.848 296.878 94.536 298.102 93.912C299.35 93.264 300.346 92.292 301.09 90.996C301.834 89.7 302.206 88.104 302.206 86.208C302.206 84.336 301.834 82.752 301.09 81.456C300.346 80.16 299.362 79.2 298.138 78.576C296.914 77.928 295.594 77.604 294.178 77.604C292.762 77.604 291.442 77.928 290.218 78.576C289.018 79.2 288.046 80.16 287.302 81.456C286.558 82.752 286.186 84.336 286.186 86.208C286.186 88.104 286.546 89.7 287.266 90.996C288.01 92.292 288.982 93.264 290.182 93.912C291.406 94.536 292.726 94.848 294.142 94.848Z" fill="white"/>
</g>
<defs>
<clipPath id="clip0_2084_439">
<rect width="310" height="110" fill="white"/>
</clipPath>
</defs>
</svg>
